<svg width="24" height="24" viewBox="0 0 24 24" fill="none" xmlns="http://www.w3.org/2000/svg">
<rect width="24" height="24" rx="12" fill="white"/>
<path d="M20.5583 10.2915H19.8553V10.2553H12.0008V13.7462H16.933C16.2134 15.7784 14.2799 17.2371 12.0008 17.2371C9.10896 17.2371 6.76436 14.8926 6.76436 12.0008C6.76436 9.10896 9.10896 6.76436 12.0008 6.76436C13.3356 6.76436 14.55 7.26793 15.4747 8.09048L17.9432 5.62196C16.3845 4.1693 14.2995 3.27344 12.0008 3.27344C7.18109 3.27344 3.27344 7.18109 3.27344 12.0008C3.27344 16.8204 7.18109 20.7281 12.0008 20.7281C16.8204 20.7281 20.7281 16.8204 20.7281 12.0008C20.7281 11.4156 20.6679 10.8444 20.5583 10.2915Z" fill="#FFC107"/>
<path d="M4.2793 7.93863L7.14666 10.0415C7.92252 8.12059 9.80151 6.76437 12.0004 6.76437C13.3352 6.76437 14.5496 7.26793 15.4743 8.09048L17.9428 5.62196C16.3841 4.1693 14.2991 3.27344 12.0004 3.27344C8.64819 3.27344 5.74112 5.16596 4.2793 7.93863Z" fill="#F64848"/>
<path d="M12 20.7317C14.2542 20.7317 16.3025 19.869 17.8512 18.4661L15.1501 16.1804C14.2444 16.8692 13.1378 17.2417 12 17.2408C9.72999 17.2408 7.80256 15.7934 7.07645 13.7734L4.23047 15.9662C5.67484 18.7925 8.60809 20.7317 12 20.7317Z" fill="#4CAF50"/>
<path d="M20.5576 10.294H19.8546V10.2578H12V13.7487H16.9322C16.588 14.7159 15.968 15.561 15.1488 16.1797L15.1501 16.1789L17.8512 18.4645C17.6601 18.6382 20.7273 16.3669 20.7273 12.0033C20.7273 11.4181 20.6671 10.8469 20.5576 10.294Z" fill="#337AEA"/>
</svg>
