<svg width="107" height="39" viewBox="0 0 107 39" fill="none" xmlns="http://www.w3.org/2000/svg">
<path d="M31.5273 8.97252L31.5273 8.97254L25.7633 12.6107L19.3493 5.95321C19.3493 5.95318 19.3493 5.95316 19.3492 5.95313C18.9026 5.48943 18.2736 5.23755 17.6206 5.29258C16.9676 5.34762 16.3898 5.7013 16.027 6.23312L16.027 6.23314L10.8178 13.8703L4.52608 11.2482L4.52595 11.2482C3.69342 10.9013 2.75427 11.1176 2.14653 11.7723C1.54876 12.4162 1.38649 13.3526 1.69282 14.1624L1.69284 14.1624L7.7323 30.1241C7.7323 30.1242 7.73231 30.1242 7.73231 30.1242C8.07325 31.0253 8.95457 31.6476 9.95236 31.5635L10.0568 31.5547L10.1569 31.5234L10.5086 31.413C16.6002 29.5023 23.0436 28.9862 29.3617 29.903L29.4694 29.9186L29.5779 29.9095C30.5756 29.8254 31.3404 29.0643 31.5257 28.1188L34.8083 11.3715C34.9749 10.5219 34.6582 9.62582 33.9611 9.09102C33.2524 8.54721 32.2901 8.49108 31.5273 8.97252Z" stroke="#333333" stroke-width="1.9"/>
<path d="M15.9727 25.4377C15.9727 25.4377 15.4122 23.9704 13.5143 24.1895C11.713 24.3974 11.405 25.965 11.405 25.965" stroke="#333333" stroke-width="1.8" stroke-miterlimit="10" stroke-linecap="round" stroke-linejoin="round"/>
<path d="M27.4239 24.1174C27.4239 24.1174 26.8634 22.6501 24.9655 22.8692C23.1641 23.0771 22.8562 24.6447 22.8562 24.6447" stroke="#333333" stroke-width="1.8" stroke-miterlimit="10" stroke-linecap="round" stroke-linejoin="round"/>
<path d="M40.2227 26C40.1027 26 40.0007 25.958 39.9167 25.874C39.8327 25.79 39.7907 25.688 39.7907 25.568V13.85C39.7907 13.718 39.8267 13.61 39.8987 13.526C39.9827 13.442 40.0907 13.4 40.2227 13.4H41.6807C41.9087 13.4 42.0887 13.514 42.2207 13.742L45.6947 20.186L49.1687 13.742C49.3007 13.514 49.4807 13.4 49.7087 13.4H51.1487C51.2807 13.4 51.3887 13.442 51.4727 13.526C51.5567 13.61 51.5987 13.718 51.5987 13.85V25.568C51.5987 25.7 51.5567 25.808 51.4727 25.892C51.3887 25.964 51.2807 26 51.1487 26H49.6007C49.4807 26 49.3787 25.958 49.2947 25.874C49.2107 25.79 49.1687 25.688 49.1687 25.568V17.828L46.6667 22.58C46.5347 22.844 46.3367 22.976 46.0727 22.976H45.3167C45.0647 22.976 44.8607 22.844 44.7047 22.58L42.2027 17.828V25.568C42.2027 25.688 42.1607 25.79 42.0767 25.874C42.0047 25.958 41.9027 26 41.7707 26H40.2227ZM54.5641 26C54.4561 26 54.3661 25.964 54.2941 25.892C54.2221 25.82 54.1861 25.73 54.1861 25.622L54.2221 25.46L58.5421 13.85C58.6621 13.55 58.8781 13.4 59.1901 13.4H61.1701C61.4821 13.4 61.6981 13.55 61.8181 13.85L66.1381 25.46L66.1741 25.622C66.1741 25.73 66.1321 25.82 66.0481 25.892C65.9761 25.964 65.8921 26 65.7961 26H64.1941C63.9421 26 63.7681 25.886 63.6721 25.658L62.8441 23.48H57.5161L56.6881 25.658C56.5921 25.886 56.4181 26 56.1661 26H54.5641ZM58.1461 21.392H62.2141L60.1801 15.848L58.1461 21.392ZM69.2082 26C69.0882 26 68.9862 25.958 68.9022 25.874C68.8182 25.79 68.7762 25.688 68.7762 25.568V13.85C68.7762 13.718 68.8122 13.61 68.8842 13.526C68.9682 13.442 69.0762 13.4 69.2082 13.4H73.8702C75.3462 13.4 76.4982 13.742 77.3262 14.426C78.1662 15.11 78.5862 16.082 78.5862 17.342C78.5862 18.218 78.3762 18.956 77.9562 19.556C77.5362 20.144 76.9482 20.57 76.1922 20.834L78.8022 25.424C78.8382 25.496 78.8562 25.562 78.8562 25.622C78.8562 25.73 78.8142 25.82 78.7302 25.892C78.6582 25.964 78.5742 26 78.4782 26H76.8222C76.6302 26 76.4802 25.958 76.3722 25.874C76.2642 25.778 76.1682 25.658 76.0842 25.514L73.7802 21.248H71.3142V25.568C71.3142 25.688 71.2722 25.79 71.1882 25.874C71.1042 25.958 70.9962 26 70.8642 26H69.2082ZM73.8162 19.196C74.5362 19.196 75.0762 19.04 75.4362 18.728C75.7962 18.404 75.9762 17.936 75.9762 17.324C75.9762 16.712 75.7962 16.244 75.4362 15.92C75.0762 15.584 74.5362 15.416 73.8162 15.416H71.3142V19.196H73.8162ZM82.2771 26C82.1571 26 82.0551 25.958 81.9711 25.874C81.8871 25.79 81.8451 25.688 81.8451 25.568V13.85C81.8451 13.718 81.8811 13.61 81.9531 13.526C82.0371 13.442 82.1451 13.4 82.2771 13.4H83.8971C84.0291 13.4 84.1371 13.442 84.2211 13.526C84.3051 13.61 84.3471 13.718 84.3471 13.85V18.062L88.3611 13.724C88.5411 13.508 88.7751 13.4 89.0631 13.4H90.8991C90.9951 13.4 91.0791 13.436 91.1511 13.508C91.2351 13.58 91.2771 13.67 91.2771 13.778C91.2771 13.862 91.2471 13.934 91.1871 13.994L86.2911 19.43L91.5471 25.388C91.5951 25.472 91.6191 25.55 91.6191 25.622C91.6191 25.73 91.5831 25.82 91.5111 25.892C91.4391 25.964 91.3551 26 91.2591 26H89.3691C89.1171 26 88.9371 25.952 88.8291 25.856C88.7211 25.748 88.6611 25.688 88.6491 25.676L84.3471 20.924V25.568C84.3471 25.688 84.3051 25.79 84.2211 25.874C84.1371 25.958 84.0291 26 83.8971 26H82.2771ZM97.9197 26C97.7997 26 97.6977 25.958 97.6137 25.874C97.5297 25.79 97.4877 25.688 97.4877 25.568V21.518L93.2217 13.976C93.1857 13.868 93.1677 13.802 93.1677 13.778C93.1677 13.67 93.2037 13.58 93.2757 13.508C93.3597 13.436 93.4497 13.4 93.5457 13.4H95.1657C95.3937 13.4 95.5797 13.514 95.7237 13.742L98.7477 18.962L101.79 13.742C101.838 13.658 101.904 13.58 101.988 13.508C102.084 13.436 102.198 13.4 102.33 13.4H103.95C104.058 13.4 104.148 13.436 104.22 13.508C104.292 13.58 104.328 13.67 104.328 13.778C104.328 13.85 104.31 13.916 104.274 13.976L100.026 21.518V25.568C100.026 25.7 99.9837 25.808 99.8997 25.892C99.8157 25.964 99.7077 26 99.5757 26H97.9197Z" fill="#333333"/>
</svg>
