<svg width="41" height="40" viewBox="0 0 41 40" fill="none" xmlns="http://www.w3.org/2000/svg">
<g id="comoda-rapida">
<g id="ion:fast-food" clip-path="url(#clip0_38_8970)">
<path id="Vector" d="M31.3949 12.5002H27.1264L27.5445 10.8287L29.3408 10.217C29.7228 10.0871 29.9502 9.68118 29.84 9.29306C29.812 9.19542 29.7644 9.1045 29.7002 9.0258C29.636 8.94711 29.5564 8.88227 29.4664 8.83524C29.3764 8.78821 29.2777 8.75995 29.1764 8.75219C29.0751 8.74443 28.9733 8.75732 28.8772 8.79009L26.6741 9.54009C26.5554 9.58055 26.4488 9.6501 26.364 9.74238C26.2791 9.83467 26.2188 9.94675 26.1884 10.0684L25.5805 12.5002H19.437C19.0334 12.5002 18.687 12.8106 18.6669 13.2142C18.662 13.3156 18.6778 13.4169 18.7132 13.512C18.7486 13.6072 18.803 13.6941 18.8731 13.7676C18.9431 13.8411 19.0273 13.8996 19.1206 13.9396C19.214 13.9796 19.3144 14.0002 19.4159 14.0002H19.5449L19.5917 14.4062C19.6028 14.501 19.6483 14.5884 19.7196 14.6519C19.7909 14.7153 19.883 14.7503 19.9784 14.7502C21.8066 14.7502 23.4313 15.2612 24.6716 16.2277C25.3614 16.7593 25.9207 17.4415 26.3066 18.2223C26.5226 18.6614 26.682 19.1263 26.7809 19.6056C26.8006 19.699 26.856 19.781 26.9352 19.8343C27.5728 20.267 28.0432 20.9048 28.2682 21.6419C28.4931 22.3789 28.4591 23.1707 28.1717 23.8857C28.1383 23.9685 28.1358 24.0605 28.1647 24.1449C28.3308 24.6208 28.4157 25.1212 28.4159 25.6252C28.4159 26.6724 28.0597 27.6704 27.4128 28.4354C27.0461 28.872 26.5847 29.2194 26.0638 29.4512C25.9736 29.4909 25.9027 29.5645 25.8664 29.656C25.6717 30.1632 25.3968 30.6358 25.0522 31.0557C25.0379 31.0728 25.0287 31.0935 25.0257 31.1156C25.0227 31.1377 25.0261 31.1601 25.0355 31.1804C25.0448 31.2006 25.0597 31.2177 25.0785 31.2298C25.0972 31.2418 25.119 31.2483 25.1413 31.2484H27.448C28.0127 31.2461 28.5562 31.0324 28.9713 30.6495C29.3864 30.2665 29.6432 29.7421 29.6909 29.1793L31.2941 14.0002H31.4159C31.5176 14.0004 31.6181 13.9798 31.7115 13.9399C31.805 13.9 31.8893 13.8415 31.9595 13.768C32.0296 13.6945 32.0841 13.6075 32.1196 13.5123C32.1551 13.4171 32.1708 13.3156 32.1659 13.2142C32.1463 12.8106 31.7984 12.5002 31.3949 12.5002Z" fill="#4B4B4B"/>
<path id="Vector_2" d="M14.0109 23C14.1588 22.9993 14.3054 23.0279 14.4422 23.0843C14.5789 23.1406 14.7032 23.2235 14.8077 23.3281L15.5348 24.0552C15.5522 24.0726 15.5729 24.0864 15.5956 24.0959C15.6184 24.1053 15.6428 24.1101 15.6674 24.1101C15.6921 24.1101 15.7165 24.1053 15.7392 24.0959C15.762 24.0864 15.7827 24.0726 15.8001 24.0552L16.5257 23.3281C16.6302 23.2235 16.7545 23.1406 16.8913 23.0843C17.0281 23.0279 17.1747 22.9993 17.3226 23H26.5373C26.5865 23.0005 26.6354 22.9913 26.6811 22.9729C26.7267 22.9545 26.7684 22.9273 26.8035 22.8928C26.8387 22.8583 26.8667 22.8173 26.886 22.772C26.9053 22.7267 26.9155 22.678 26.916 22.6287V22.625C26.9155 22.1929 26.766 21.7742 26.4928 21.4395C26.2195 21.1048 25.8392 20.8745 25.416 20.7875C25.3776 19.3958 24.8066 18.2309 23.7515 17.4125C22.7755 16.6513 21.4715 16.25 19.9785 16.25H16.6035C13.4057 16.25 11.2396 18.0673 11.166 20.7875C10.7428 20.8745 10.3625 21.1048 10.0893 21.4395C9.81603 21.7742 9.66654 22.1929 9.66602 22.625C9.66602 22.7245 9.70552 22.8198 9.77585 22.8902C9.84618 22.9605 9.94156 23 10.041 23H14.0109Z" fill="#4B4B4B"/>
<path id="Vector_3" d="M17.632 24.5C17.5827 24.5 17.5339 24.5096 17.4884 24.5285C17.4429 24.5473 17.4015 24.5749 17.3666 24.6097L16.3288 25.648C16.153 25.8237 15.9146 25.9225 15.666 25.9225C15.4174 25.9225 15.179 25.8237 15.0032 25.648L13.9654 24.6097C13.9305 24.5749 13.8892 24.5473 13.8436 24.5285C13.7981 24.5096 13.7493 24.5 13.7001 24.5H10.447C10.2708 24.4992 10.1 24.5608 9.96481 24.6737C9.82962 24.7867 9.73873 24.9438 9.7082 25.1174C9.68004 25.2851 9.66593 25.4549 9.66602 25.625C9.66602 27.0589 10.6565 28.227 11.8813 28.25C11.9952 28.9587 12.2709 29.5991 12.6857 30.1002C13.2993 30.8412 14.1913 31.25 15.1973 31.25H21.3848C22.3907 31.25 23.2827 30.8412 23.8963 30.0992C24.3112 29.5981 24.5868 28.9578 24.7007 28.2491C25.9255 28.227 26.916 27.0589 26.916 25.6241C26.9161 25.454 26.902 25.2842 26.8738 25.1164C26.8431 24.9431 26.7521 24.7862 26.617 24.6734C26.4818 24.5606 26.3111 24.4992 26.1351 24.5H17.632Z" fill="#4B4B4B"/>
</g>
</g>
<defs>
<clipPath id="clip0_38_8970">
<rect width="24" height="24" fill="white" transform="translate(8.91602 8)"/>
</clipPath>
</defs>
</svg>
