<svg width="41" height="40" viewBox="0 0 41 40" fill="none" xmlns="http://www.w3.org/2000/svg">
<g id="helado">
<g id="ion:ice-cream" clip-path="url(#clip0_38_9014)">
<path id="Vector" d="M16.8633 24.4995C15.8395 24.4752 15.0352 23.6136 15.0352 22.5898V20.9928C15.0351 20.9097 15.0074 20.829 14.9565 20.7633C14.9056 20.6977 14.8344 20.6508 14.7539 20.63C13.1719 20.2152 12.0352 18.7686 12.0352 16.9995C12.0364 16.1169 12.3484 15.2628 12.9164 14.5872C13.4844 13.9116 14.2722 13.4576 15.1416 13.3048C15.2207 13.2917 15.2936 13.2535 15.3495 13.1959C15.4053 13.1383 15.4412 13.0642 15.4519 12.9847C15.6063 11.8121 16.1817 10.7356 17.0709 9.95584C17.9601 9.17604 19.1025 8.74609 20.2852 8.74609C21.4679 8.74609 22.6102 9.17604 23.4994 9.95584C24.3886 10.7356 24.964 11.8121 25.1184 12.9847C25.1291 13.0642 25.165 13.1383 25.2208 13.1959C25.2767 13.2535 25.3496 13.2917 25.4288 13.3048C26.3539 13.4655 27.1851 13.9674 27.758 14.7113C28.331 15.4552 28.604 16.387 28.5231 17.3225C28.4422 18.258 28.0134 19.1291 27.3212 19.7637C26.6291 20.3982 25.7241 20.75 24.7852 20.7495C23.9712 20.7457 23.1843 20.4569 22.5609 19.9334C22.4957 19.8796 22.4141 19.8497 22.3296 19.8485C22.2451 19.8473 22.1626 19.8749 22.0959 19.9269C21.5801 20.3346 20.9427 20.5582 20.2852 20.562C19.9393 20.5594 19.5955 20.5093 19.2633 20.413C19.2075 20.397 19.1487 20.3942 19.0917 20.4048C19.0346 20.4154 18.9808 20.4391 18.9344 20.4741C18.8881 20.509 18.8505 20.5542 18.8246 20.6062C18.7987 20.6581 18.7852 20.7154 18.7852 20.7734V22.6245C18.7852 22.8748 18.7352 23.1225 18.6381 23.3531C18.5409 23.5837 18.3986 23.7925 18.2195 23.9672C18.0404 24.1419 17.8281 24.2791 17.5952 24.3705C17.3623 24.4619 17.1134 24.5058 16.8633 24.4995Z" fill="#4B4B4B"/>
<path id="Vector_2" d="M20.6316 22.0501C20.5379 22.0572 20.4503 22.0993 20.3862 22.168C20.322 22.2367 20.286 22.3269 20.2852 22.4209V22.6266C20.2843 23.347 20.0532 24.0481 19.6258 24.6279C19.1984 25.2077 18.5969 25.6358 17.9091 25.8498C17.8593 25.8657 17.8134 25.8919 17.7743 25.9266C17.7352 25.9614 17.7038 26.0039 17.6822 26.0515C17.6605 26.0991 17.649 26.1507 17.6485 26.2029C17.6479 26.2552 17.6583 26.307 17.679 26.3551L19.5966 30.7988C19.6546 30.9333 19.7508 31.0478 19.8731 31.1283C19.9955 31.2088 20.1388 31.2516 20.2852 31.2516C20.4319 31.2515 20.5753 31.2083 20.6977 31.1275C20.82 31.0467 20.9161 30.9318 20.9738 30.797L24.4322 22.7274C24.4549 22.6746 24.4651 22.6173 24.4621 22.5599C24.4591 22.5025 24.4429 22.4465 24.4148 22.3964C24.3867 22.3462 24.3475 22.3032 24.3001 22.2706C24.2527 22.238 24.1985 22.2168 24.1416 22.2085C23.5528 22.1292 22.9829 21.9452 22.4588 21.6652C22.4076 21.6379 22.3508 21.6229 22.2928 21.6212C22.2348 21.6196 22.1772 21.6315 22.1246 21.6559C21.6537 21.8732 21.1484 22.0066 20.6316 22.0501Z" fill="#4B4B4B"/>
</g>
</g>
<defs>
<clipPath id="clip0_38_9014">
<rect width="24" height="24" fill="white" transform="translate(8.28516 8)"/>
</clipPath>
</defs>
</svg>
